<svg xmlns="http://www.w3.org/2000/svg" viewBox="0 0 119.32 95.83"><defs><style>.cls-1{fill:#FFFFFF;}</style></defs><g id="Layer_2" data-name="Layer 2"><g id="Layer_1-2" data-name="Layer 1"><path class="cls-1" d="M119.32,2.71H85.67L83.4,20.82A48.46,48.46,0,0,0,67.83,6,44.2,44.2,0,0,0,44.91,0a44.8,44.8,0,0,0-23.4,6A42.14,42.14,0,0,0,5.71,22.85C1.92,30.06,0,38.45,0,48.08a53.17,53.17,0,0,0,5.71,25,41.38,41.38,0,0,0,15.8,16.81q10.08,6,23.4,6a44.2,44.2,0,0,0,22.92-6,47.19,47.19,0,0,0,15.53-15l2.31,18.4h33.65l-5.73-45.37ZM67.12,68.16a27.62,27.62,0,0,1-12.54,2.93,21.46,21.46,0,0,1-11.26-2.93A20.42,20.42,0,0,1,35.63,60a25,25,0,0,1-2.77-11.9,25.32,25.32,0,0,1,2.77-12A20.68,20.68,0,0,1,54.58,24.77a27.17,27.17,0,0,1,12.54,3A33.86,33.86,0,0,1,77.43,36a35.28,35.28,0,0,1,6.66,12A35.45,35.45,0,0,1,77.43,60,33,33,0,0,1,67.12,68.16Z"/></g></g></svg>